<?xml version="1.0" encoding="utf-8"?>
<!-- Generator: Adobe Illustrator 28.2.0, SVG Export Plug-In . SVG Version: 6.00 Build 0)  -->
<svg version="1.1" id="Layer_1" xmlns="http://www.w3.org/2000/svg" xmlns:xlink="http://www.w3.org/1999/xlink" x="0px" y="0px"
	 viewBox="0 0 1080 311.6" style="enable-background:new 0 0 1080 311.6;" xml:space="preserve">
<style type="text/css">
	.st0{fill:#FFFFFF;}
	.st1{fill:#F6E592;}
</style>
<g>
	<g>
		<path class="st0" d="M932.12,196.97c-7.19-9.73-13.95-19.41-21.33-28.59c-2.71-3.36-6.22-1.85-6.34,2.57
			c-0.2,7.23,0.08,14.48,0.45,21.71c0.25,4.88,3.91,6.18,8.04,6.41c2.77,0.15,5.3,0.97,4.31,4.06c-0.46,1.45-3.29,3.02-5.08,3.05
			c-14.89,0.26-29.79,0.28-44.68,0.06c-1.86-0.03-4.91-1.5-5.31-2.9c-1.03-3.6,1.99-4.14,4.82-4.18c6.43-0.08,8.83-3.73,8.82-9.71
			c-0.03-32.4-0.05-64.81,0-97.21c0.01-4.25-1.53-7.18-5.38-9.29c-1.62-0.89-3.16-3.04-3.42-4.81c-0.13-0.9,2.48-2.7,4.13-3.29
			c8.9-3.17,17.89-6.1,26.85-9.08c5.74-1.91,6.68-1.19,6.65,4.89c-0.13,27.17-0.28,54.34-0.38,81.5c-0.03,7.57,2.68,9.57,9.44,5.98
			c9.06-4.8,14.74-13.11,21.51-22.01c-3.45-0.9-5.85-1.11-7.81-2.17c-1.61-0.87-2.7-2.73-4.01-4.15c1.43-1.02,2.8-2.84,4.3-2.95
			c13.64-1.02,27.3-1.85,40.97-2.4c1.55-0.06,3.18,1.96,4.77,3.02c-1.2,1.32-2.27,3.61-3.63,3.81
			c-12.68,1.83-21.78,9.86-31.27,17.33c-3.45,2.72-4.21,5.32-1.33,9.1c8.16,10.73,16.1,21.62,24.06,32.49
			c4.01,5.47,9.71,7.53,16.08,8.43c2.7,0.38,5.81,1.15,4.55,4.64c-0.53,1.46-3.55,2.82-5.46,2.85c-15.29,0.23-30.59,0.23-45.89,0
			c-2.11-0.03-5.4-1.26-6.05-2.81c-1.42-3.41,1.81-4.12,4.44-4.74C929.7,198.39,930.37,197.87,932.12,196.97z"/>
		<path class="st0" d="M675.98,173.48c4.16-11.23,8.39-22.44,12.45-33.71c1.43-3.97-1.84-4.35-4.42-5.6c-1.95-0.94-3.36-3-5.01-4.57
			c2.07-0.98,4.1-2.72,6.2-2.8c8.85-0.32,17.72-0.27,26.57-0.02c1.78,0.05,3.51,1.59,5.27,2.44c-1.35,1.6-2.47,4.26-4.08,4.59
			c-5.98,1.25-9.35,4.81-11.78,10.12c-9.04,19.75-18.32,39.38-27.41,59.11c-1.5,3.26-2.82,5.96-7.23,5.93
			c-4.17-0.03-5.37-2.62-6.8-5.64c-6.54-13.77-13.2-27.49-20.41-42.47c-4.37,8.47-8.14,15.73-11.87,23.02
			c-3.2,6.27-6.35,12.57-9.5,18.86c-1.63,3.25-2.94,6.43-7.71,6.3c-4.5-0.13-5.53-3.18-7.03-6.27c-9.31-19.17-18.72-38.3-27.99-57.5
			c-2.63-5.46-5.64-10.11-12.28-11.35c-1.29-0.24-2.16-2.73-3.22-4.18c1.41-1.01,2.82-2.9,4.24-2.91
			c34.03-0.21,68.06-0.26,102.09-0.12c1.53,0.01,3.05,2.04,4.58,3.13c-1.35,1.38-2.57,2.95-4.1,4.08c-0.89,0.66-2.28,0.73-3.47,0.89
			c-4.25,0.6-5.47,2.65-3.61,6.66c4.88,10.57,9.63,21.2,14.43,31.81C674.58,173.37,675.28,173.43,675.98,173.48z M619.43,173.69
			c0.72,0,1.44,0.01,2.16,0.01c3.46-7.6,7.53-15,10.23-22.87c2.93-8.53-2.03-15.16-11.05-15.89c-4.18-0.34-8.42-0.11-12.63-0.03
			c-4.92,0.09-5.88,2.8-4.01,6.79C609.14,152.4,614.31,163.03,619.43,173.69z"/>
		<path class="st0" d="M412.02,161.09c-7.71,15.2-14.6,29.02-21.76,42.7c-1.09,2.08-3.1,4.41-5.19,5.08
			c-4.17,1.36-6.83-0.73-8.82-4.94c-9.36-19.82-19.13-39.44-28.67-59.18c-2.47-5.1-5.52-9.17-11.6-10.43
			c-1.38-0.29-2.27-3-3.38-4.59c1.49-0.94,2.97-2.68,4.47-2.69c33.82-0.2,67.64-0.26,101.46-0.14c1.64,0.01,3.27,1.85,4.9,2.83
			c-1.42,1.49-2.59,3.83-4.3,4.34c-8.96,2.66-9.23,2.79-5.4,11.34c4.25,9.47,8.72,18.85,13.09,28.27c0.64,0.05,1.27,0.1,1.91,0.14
			c4.21-11.37,8.58-22.68,12.4-34.18c0.35-1.07-2.4-3.83-4.24-4.79c-2.42-1.26-6.3-1.26-4.87-5.13c0.55-1.49,3.95-2.63,6.1-2.7
			c8.84-0.31,17.71-0.29,26.55-0.03c1.74,0.05,3.44,1.68,5.16,2.58c-1.37,1.56-2.51,4.15-4.14,4.5c-5.71,1.24-9.1,4.56-11.45,9.67
			c-9.18,19.9-18.53,39.72-27.74,59.61c-1.39,3.01-2.45,5.74-6.63,5.84c-4.32,0.11-5.85-2.34-7.42-5.68
			C426.03,189.89,419.4,176.36,412.02,161.09z M392.25,174.11c0.68-0.04,1.36-0.08,2.04-0.12c3.38-7.23,7.24-14.29,10.03-21.74
			c3.5-9.37-1.55-16.58-11.41-17.12c-4.01-0.22-8.04-0.06-12.06,0.07c-4.37,0.14-5.88,2.58-4.1,6.42
			C381.79,152.5,387.06,163.28,392.25,174.11z"/>
		<path class="st0" d="M754.35,209.65c-7.18-1.27-13.45-1.82-19.37-3.54c-17.38-5.04-28.24-17.58-29.65-33.44
			c-1.67-18.71,6.36-33.91,22.95-42.13c16.8-8.33,34.16-8.67,51.37-1.34c16.31,6.95,25.29,21.61,24.46,38.7
			c-0.87,18.01-10.53,31.48-27.65,37.1C769.09,207.41,761.22,208.25,754.35,209.65z M773.59,169.47c-1.74-7.95-2.9-16.35-5.5-24.28
			c-2.69-8.19-8.8-12.42-14.99-11.86c-7.94,0.72-12.11,6.01-14.14,13.01c-4.06,13.96-3.43,27.84,1.96,41.37
			c0.95,2.37,2.49,4.64,4.2,6.56c7.8,8.76,20.33,6.79,24.24-4.24C771.61,183.7,772.15,176.77,773.59,169.47z"/>
		<path class="st0" d="M530.59,159.53c-7.24,0-14.49,0.09-21.73-0.04c-3.39-0.06-4.57,1.34-4.63,4.67
			c-0.18,10.66,6.78,21.16,17.18,25.51c11.53,4.83,23.6,2.89,31.47-4.67c1.36-1.31,3.88-1.41,5.87-2.07
			c0.05,2.29,0.98,5.08,0.01,6.78c-8.15,14.26-26.72,21.83-45.11,18.8c-22.21-3.67-35.89-18.38-36.4-39.15
			c-0.52-21.03,14.59-39.42,36-43.73c10.73-2.16,21.26-1.76,31.16,3.41c8.62,4.5,13.73,11.6,14.62,21.42
			c0.62,6.91-1.03,8.82-7.91,8.96c-6.84,0.14-13.68,0.03-20.52,0.03C530.59,159.48,530.59,159.5,530.59,159.53z M518.3,150.8
			c0-0.02,0-0.04,0-0.05c2.4,0,4.83,0.26,7.19-0.06c3.81-0.51,8.46-0.07,8.81-5.88c0.33-5.38-3.02-9.68-8.39-10.77
			c-6.43-1.3-14.14,1.78-17.67,7.59c-1.24,2.04-2.26,5.04-1.64,7.08c0.36,1.22,4.06,1.62,6.32,2.03
			C514.65,151.05,516.5,150.8,518.3,150.8z"/>
		<path class="st0" d="M837.16,134.87c3.71-2.33,5.78-3.85,8.04-5.01c3.73-1.92,7.42-4.2,11.41-5.27c6.37-1.71,12.13,0.88,14.4,5.87
			c2.38,5.25,1.76,10.28-2.36,14.47c-3.96,4.02-11.26,4.79-16.25,1.87c-2.25-1.32-4.29-3.01-6.55-4.3
			c-4.13-2.36-7.55-1.45-7.64,3.56c-0.28,15.87-0.23,31.75,0.23,47.61c0.05,1.87,3.21,4.07,5.39,5.31c1.59,0.9,4.14-0.01,5.88,0.77
			c1.64,0.73,2.77,2.6,4.12,3.97c-1.44,1-2.84,2.79-4.33,2.86c-5.42,0.26-10.87-0.14-16.3-0.12c-10.67,0.03-21.35,0.32-32.02,0.13
			c-1.78-0.03-3.52-1.93-5.28-2.97c1.58-1.36,3.11-3.81,4.74-3.87c6-0.24,8.33-3.49,8.38-8.84c0.13-14.09,0.35-28.19-0.13-42.26
			c-0.1-2.8-3.16-5.51-4.89-8.24c-1-1.58-2.99-3.21-2.83-4.64c0.13-1.26,2.45-2.69,4.09-3.33c8.43-3.29,16.99-6.23,25.41-9.54
			c5.59-2.2,6.75-1.52,6.52,4.47C837.1,129.27,837.16,131.19,837.16,134.87z"/>
	</g>
	<g>
		<path class="st1" d="M209.41,86.07c0-10.18-8.42-18.65-18.59-18.68c-10.15-0.04-18.63,8.36-18.75,18.57
			c-0.12,10.29,8.46,18.9,18.8,18.84C201.04,104.75,209.4,96.3,209.41,86.07z M159.27,228.12c0.03-10.24-8.26-18.64-18.51-18.75
			c-10.26-0.11-18.91,8.54-18.83,18.83c0.08,10.2,8.54,18.58,18.73,18.58C150.85,246.77,159.24,238.36,159.27,228.12z
			 M246.22,140.97c-0.06,10.45,8.31,18.89,18.7,18.87c10.22-0.02,18.51-8.39,18.5-18.68c-0.01-10.31-8.23-18.59-18.54-18.65
			C254.75,122.44,246.28,130.82,246.22,140.97z M97.81,141.7c-0.03,10.35,8.11,18.64,18.39,18.74c10.39,0.1,18.76-8.29,18.75-18.78
			c-0.01-10.18-8.2-18.47-18.26-18.48C105.97,123.17,97.83,131.16,97.81,141.7z M235.84,244.82c10.29,0.08,18.69-8.12,18.82-18.35
			c0.13-10.4-8.21-18.86-18.64-18.91c-10.21-0.05-18.57,8.27-18.64,18.54C217.3,236.31,225.61,244.74,235.84,244.82z M171.46,135.37
			c20.31-1,39.99-1.97,60.71-2.99c-9.74-8.03-18.57-15.33-27.45-22.57c-0.64-0.52-1.69-0.79-2.54-0.76
			c-7.07,0.27-14.14,0.58-21.2,1.05c-0.89,0.06-2.25,0.93-2.5,1.7C176.1,119.41,173.9,127.07,171.46,135.37z M175.37,214.8
			c0.91,0.27,1.32,0.5,1.74,0.51c11,0.31,22.01,0.64,33.01,0.83c1.1,0.02,2.4-0.7,3.3-1.45c4.96-4.17,9.76-8.55,14.76-12.67
			c1.81-1.49,2.22-2.74,1.27-4.96c-2.49-5.85-4.69-11.82-7.04-17.74c-0.47-1.19-1.09-2.32-1.73-3.67
			C205.44,188.82,190.56,201.67,175.37,214.8z M133.92,166.28c2.05,7.69,4.58,14.48,5.56,21.49c1.47,10.53,6.47,17.8,16.15,22.13
			c3.03,1.35,5.78,4.74,8.62,4.71c2.63-0.03,5.25-3.36,7.81-5.32c4.26-3.26,8.47-6.58,12.97-10.08
			C167.91,188.18,151.28,177.47,133.92,166.28z M158.98,173.2c4.29-19.79,8.48-39.14,12.85-59.32
			c-10.14,7.2-19.58,13.87-28.95,20.63c-0.74,0.53-1.24,1.66-1.46,2.59c-1.52,6.65-2.99,13.32-4.32,20.01
			c-0.19,0.94,0.07,2.58,0.7,2.99C144.7,164.51,151.71,168.74,158.98,173.2z M211.99,139.04c7.5,18.75,14.84,37.13,22.53,56.36
			c4.36-11.63,8.36-22.23,12.25-32.88c0.36-0.98,0.28-2.33-0.09-3.32c-2.48-6.49-5.05-12.95-7.73-19.35
			c-0.35-0.84-1.54-1.93-2.31-1.91C228.56,138.18,220.49,138.63,211.99,139.04z M163.36,115.1c-4.24-6.58-8.34-12.93-12.89-19.98
			c-2.53,11.66-4.86,22.41-7.36,33.95C150.29,124.13,156.73,119.68,163.36,115.1z M244.59,106.9c-11.85,0.58-22.8,1.11-34.64,1.69
			c6.62,5.64,12.56,10.7,18.67,15.9C233.84,118.74,238.92,113.15,244.59,106.9z M262.66,198.85c-4.43-11.07-8.49-21.21-12.91-32.24
			c-3.21,8.28-5.99,15.46-8.85,22.84C248.05,192.53,254.9,195.49,262.66,198.85z M206.19,221.03c-0.08-0.32-0.16-0.63-0.24-0.95
			c-7.76,0-15.52,0-23.55,0c-0.52,7.16-1.07,14.57-1.68,22.91C189.69,235.25,197.94,228.14,206.19,221.03z M138.15,198.58
			c-1.97-7.98-3.71-15.12-5.56-22.24c-0.14-0.52-1.21-1.25-1.7-1.15c-7.03,1.41-14.03,2.94-21.85,4.61
			C119,186.23,128.19,192.15,138.15,198.58z"/>
		<path class="st1" d="M209.41,86.07c0,10.23-8.36,18.68-18.54,18.73c-10.34,0.05-18.92-8.55-18.8-18.84
			c0.12-10.21,8.6-18.61,18.75-18.57C200.99,67.42,209.41,75.89,209.41,86.07z"/>
		<path class="st1" d="M159.27,228.12c-0.03,10.24-8.42,18.65-18.61,18.66c-10.2,0.01-18.65-8.38-18.73-18.58
			c-0.08-10.29,8.57-18.94,18.83-18.83C151.01,209.48,159.3,217.88,159.27,228.12z"/>
		<path class="st1" d="M246.22,140.97c0.06-10.15,8.53-18.53,18.66-18.47c10.31,0.07,18.53,8.34,18.54,18.65
			c0.01,10.3-8.28,18.66-18.5,18.68C254.53,159.86,246.17,151.42,246.22,140.97z"/>
		<path class="st1" d="M97.81,141.7c0.03-10.54,8.17-18.53,18.88-18.52c10.06,0.01,18.25,8.29,18.26,18.48
			c0.01,10.5-8.36,18.88-18.75,18.78C105.91,160.34,97.78,152.05,97.81,141.7z"/>
		<path class="st1" d="M235.84,244.82c-10.23-0.08-18.55-8.51-18.47-18.72c0.08-10.28,8.44-18.59,18.64-18.54
			c10.43,0.05,18.77,8.5,18.64,18.91C254.53,236.7,246.13,244.9,235.84,244.82z"/>
		<path class="st1" d="M171.46,135.37c2.45-8.3,4.64-15.96,7.03-23.57c0.24-0.78,1.6-1.65,2.5-1.7c7.06-0.47,14.13-0.78,21.2-1.05
			c0.84-0.03,1.9,0.24,2.54,0.76c8.88,7.24,17.71,14.54,27.45,22.57C211.45,133.4,191.77,134.37,171.46,135.37z"/>
		<path class="st1" d="M175.37,214.8c15.19-13.13,30.07-25.98,45.31-39.15c0.64,1.35,1.26,2.48,1.73,3.67
			c2.35,5.91,4.55,11.89,7.04,17.74c0.95,2.22,0.53,3.47-1.27,4.96c-5,4.12-9.8,8.5-14.76,12.67c-0.89,0.75-2.19,1.46-3.3,1.45
			c-11.01-0.18-22.01-0.51-33.01-0.83C176.69,215.3,176.28,215.08,175.37,214.8z"/>
		<path class="st1" d="M133.92,166.28c17.36,11.19,33.99,21.9,51.11,32.93c-4.5,3.5-8.71,6.82-12.97,10.08
			c-2.56,1.96-5.18,5.28-7.81,5.32c-2.84,0.04-5.59-3.35-8.62-4.71c-9.68-4.32-14.67-11.6-16.15-22.13
			C138.5,180.76,135.97,173.97,133.92,166.28z"/>
		<path class="st1" d="M158.98,173.2c-7.27-4.46-14.28-8.69-21.18-13.1c-0.63-0.41-0.89-2.05-0.7-2.99
			c1.34-6.69,2.8-13.36,4.32-20.01c0.21-0.94,0.72-2.06,1.46-2.59c9.37-6.76,18.81-13.42,28.95-20.63
			C167.46,134.06,163.27,153.4,158.98,173.2z"/>
		<path class="st1" d="M211.99,139.04c8.5-0.41,16.57-0.86,24.65-1.11c0.77-0.02,1.96,1.07,2.31,1.91
			c2.68,6.41,5.25,12.86,7.73,19.35c0.38,0.99,0.45,2.35,0.09,3.32c-3.89,10.64-7.9,21.25-12.25,32.88
			C226.83,176.17,219.49,157.79,211.99,139.04z"/>
		<path class="st1" d="M163.36,115.1c-6.63,4.57-13.08,9.03-20.24,13.97c2.5-11.54,4.83-22.28,7.36-33.95
			C155.02,102.17,159.12,108.52,163.36,115.1z"/>
		<path class="st1" d="M244.59,106.9c-5.67,6.25-10.76,11.84-15.97,17.59c-6.11-5.2-12.04-10.26-18.67-15.9
			C221.79,108.01,232.75,107.48,244.59,106.9z"/>
		<path class="st1" d="M262.66,198.85c-7.77-3.36-14.62-6.31-21.76-9.4c2.86-7.38,5.64-14.56,8.85-22.84
			C254.17,177.64,258.23,187.78,262.66,198.85z"/>
		<path class="st1" d="M206.19,221.03c-8.25,7.11-16.5,14.22-25.47,21.96c0.61-8.34,1.15-15.75,1.68-22.91c8.03,0,15.79,0,23.55,0
			C206.03,220.39,206.11,220.71,206.19,221.03z"/>
		<path class="st1" d="M138.15,198.58c-9.96-6.42-19.15-12.35-29.11-18.77c7.81-1.67,14.82-3.21,21.85-4.61
			c0.49-0.1,1.56,0.63,1.7,1.15C134.44,183.46,136.17,190.6,138.15,198.58z"/>
	</g>
</g>
</svg>
